<svg width="274" height="43" viewBox="0 0 274 43" fill="none" xmlns="http://www.w3.org/2000/svg">
<g filter="url(#filter0_d_1_7)">
<mask id="path-1-outside-1_1_7" maskUnits="userSpaceOnUse" x="3" y="-1" width="268" height="29" fill="black">
<rect fill="white" x="3" y="-1" width="268" height="29"/>
<path d="M16.2674 0.545454H22.3327V18.1449C22.3245 19.7938 21.9309 21.2356 21.152 22.4702C20.3731 23.6965 19.2959 24.6494 17.9205 25.3288C16.5533 26.0083 14.9706 26.348 13.1726 26.348C11.5817 26.348 10.1358 26.0704 8.83487 25.5153C7.54226 24.9601 6.51065 24.0984 5.74006 22.93C4.97775 21.7617 4.60073 20.2661 4.60902 18.4432H10.7365C10.7614 19.0978 10.8857 19.6571 11.1094 20.1211C11.3414 20.5768 11.6604 20.9207 12.0664 21.1527C12.4724 21.3847 12.9572 21.5007 13.5206 21.5007C14.1089 21.5007 14.6061 21.3764 15.0121 21.1278C15.4181 20.871 15.7247 20.494 15.9318 19.9968C16.1473 19.4996 16.2591 18.8823 16.2674 18.1449V0.545454ZM37.5566 26.3604C35.5514 26.3604 33.8279 25.9503 32.3862 25.13C30.9527 24.3014 29.8465 23.1496 29.0676 21.6747C28.297 20.1915 27.9117 18.4722 27.9117 16.5167C27.9117 14.5529 28.297 12.8336 29.0676 11.3587C29.8465 9.87547 30.9527 8.72372 32.3862 7.90341C33.8279 7.07481 35.5514 6.66051 37.5566 6.66051C39.5618 6.66051 41.2812 7.07481 42.7146 7.90341C44.1564 8.72372 45.2626 9.87547 46.0332 11.3587C46.8121 12.8336 47.2015 14.5529 47.2015 16.5167C47.2015 18.4722 46.8121 20.1915 46.0332 21.6747C45.2626 23.1496 44.1564 24.3014 42.7146 25.13C41.2812 25.9503 39.5618 26.3604 37.5566 26.3604ZM37.5939 21.7741C38.3231 21.7741 38.9404 21.5504 39.4458 21.103C39.9513 20.6555 40.3366 20.0341 40.6017 19.2386C40.8752 18.4432 41.0119 17.5234 41.0119 16.4794C41.0119 15.4188 40.8752 14.4908 40.6017 13.6953C40.3366 12.8999 39.9513 12.2784 39.4458 11.831C38.9404 11.3835 38.3231 11.1598 37.5939 11.1598C36.8399 11.1598 36.2019 11.3835 35.6798 11.831C35.1661 12.2784 34.7725 12.8999 34.4991 13.6953C34.2339 14.4908 34.1014 15.4188 34.1014 16.4794C34.1014 17.5234 34.2339 18.4432 34.4991 19.2386C34.7725 20.0341 35.1661 20.6555 35.6798 21.103C36.2019 21.5504 36.8399 21.7741 37.5939 21.7741ZM58.8427 15.1122V26H52.765V0.545454H58.6439V10.4141H58.8552C59.286 9.23745 59.9903 8.31771 60.9681 7.65483C61.9541 6.99195 63.1597 6.66051 64.5849 6.66051C65.9273 6.66051 67.0956 6.95881 68.0899 7.5554C69.0842 8.1437 69.8548 8.97644 70.4017 10.0536C70.9568 11.1308 71.2303 12.3903 71.222 13.832V26H65.1442V15.0252C65.1525 13.9646 64.8874 13.136 64.3488 12.5394C63.8102 11.9428 63.052 11.6445 62.0743 11.6445C61.4363 11.6445 60.8728 11.7854 60.3839 12.0671C59.9033 12.3406 59.5263 12.7341 59.2529 13.2479C58.9877 13.7616 58.851 14.383 58.8427 15.1122ZM83.5437 15.1122V26H77.4659V6.90909H83.2454V10.4141H83.4567C83.8793 9.24574 84.6002 8.33014 85.6194 7.66726C86.6385 6.99609 87.8524 6.66051 89.261 6.66051C90.6034 6.66051 91.7676 6.96295 92.7536 7.56783C93.7479 8.16442 94.5185 9.0013 95.0654 10.0785C95.6205 11.1474 95.894 12.3986 95.8857 13.832V26H89.8079V15.0252C89.8162 13.9646 89.5469 13.136 89 12.5394C88.4614 11.9428 87.7116 11.6445 86.7504 11.6445C86.1124 11.6445 85.5489 11.7854 85.06 12.0671C84.5795 12.3406 84.2066 12.7341 83.9414 13.2479C83.6846 13.7616 83.552 14.383 83.5437 15.1122ZM105.517 26.3604C104.622 26.3604 103.855 26.0456 103.217 25.4158C102.587 24.7861 102.277 24.0238 102.285 23.1289C102.277 22.2506 102.587 21.5007 103.217 20.8793C103.855 20.2495 104.622 19.9347 105.517 19.9347C106.362 19.9347 107.107 20.2495 107.754 20.8793C108.408 21.5007 108.74 22.2506 108.748 23.1289C108.74 23.7255 108.582 24.2682 108.276 24.7571C107.977 25.246 107.584 25.6354 107.095 25.9254C106.614 26.2154 106.088 26.3604 105.517 26.3604Z"/>
<path d="M113.184 5.5419V0.545454H134.698V5.5419H126.98V26H120.914V5.5419H113.184ZM141.882 26L136.911 6.90909H143.014L145.586 19.1392H145.748L148.507 6.90909H154.461L157.294 19.0522H157.456L159.954 6.90909H166.057L161.073 26H154.572L151.59 14.8761H151.378L148.395 26H141.882ZM176.678 26.3232C175.46 26.3232 174.378 26.1201 173.434 25.7141C172.497 25.2998 171.756 24.6784 171.209 23.8498C170.67 23.0129 170.401 21.9647 170.401 20.7053C170.401 19.6446 170.588 18.7498 170.96 18.0206C171.333 17.2914 171.847 16.699 172.502 16.2433C173.156 15.7875 173.91 15.4437 174.764 15.2116C175.617 14.9714 176.529 14.8098 177.498 14.7269C178.584 14.6275 179.458 14.5239 180.121 14.4162C180.783 14.3002 181.264 14.1386 181.562 13.9315C181.869 13.716 182.022 13.4136 182.022 13.0241V12.962C182.022 12.324 181.803 11.831 181.364 11.483C180.924 11.1349 180.332 10.9609 179.586 10.9609C178.782 10.9609 178.136 11.1349 177.647 11.483C177.158 11.831 176.848 12.3116 176.715 12.9247L171.11 12.7259C171.275 11.5658 171.702 10.5301 172.39 9.61861C173.086 8.69886 174.039 7.97798 175.248 7.45597C176.466 6.92566 177.929 6.66051 179.636 6.66051C180.854 6.66051 181.977 6.80552 183.004 7.09552C184.032 7.37725 184.926 7.79155 185.689 8.33842C186.451 8.87701 187.039 9.53989 187.454 10.3271C187.876 11.1142 188.088 12.0133 188.088 13.0241V26H182.37V23.3402H182.221C181.881 23.9865 181.446 24.5334 180.916 24.9808C180.394 25.4283 179.777 25.7638 179.064 25.9876C178.36 26.2113 177.564 26.3232 176.678 26.3232ZM178.555 22.3459C179.209 22.3459 179.797 22.2133 180.319 21.9482C180.85 21.683 181.272 21.3184 181.587 20.8544C181.902 20.3821 182.06 19.8352 182.06 19.2138V17.3991C181.886 17.4903 181.674 17.5732 181.426 17.6477C181.185 17.7223 180.92 17.7927 180.63 17.859C180.34 17.9253 180.042 17.9833 179.735 18.033C179.429 18.0827 179.135 18.1283 178.853 18.1697C178.281 18.2609 177.792 18.4018 177.386 18.5923C176.989 18.7829 176.682 19.0315 176.466 19.3381C176.259 19.6364 176.156 19.9927 176.156 20.407C176.156 21.0367 176.379 21.5173 176.827 21.8487C177.283 22.1802 177.859 22.3459 178.555 22.3459ZM211.271 12.7383L205.69 12.8874C205.632 12.4897 205.475 12.1375 205.218 11.831C204.961 11.5161 204.626 11.2717 204.211 11.0977C203.805 10.9154 203.333 10.8242 202.795 10.8242C202.09 10.8242 201.489 10.9651 200.992 11.2468C200.503 11.5285 200.263 11.9097 200.271 12.3903C200.263 12.7631 200.412 13.0863 200.719 13.3597C201.034 13.6332 201.593 13.8527 202.397 14.0185L206.076 14.7145C207.982 15.0791 209.398 15.6839 210.326 16.5291C211.263 17.3743 211.735 18.4929 211.743 19.8849C211.735 21.1941 211.346 22.3335 210.575 23.3029C209.813 24.2724 208.769 25.0264 207.443 25.565C206.117 26.0953 204.601 26.3604 202.894 26.3604C200.168 26.3604 198.018 25.8011 196.443 24.6825C194.877 23.5556 193.982 22.0476 193.759 20.1584L199.762 20.0092C199.894 20.7053 200.238 21.2356 200.793 21.6001C201.349 21.9647 202.057 22.147 202.919 22.147C203.698 22.147 204.332 22.002 204.82 21.712C205.309 21.422 205.558 21.0367 205.566 20.5561C205.558 20.1252 205.367 19.7814 204.994 19.5245C204.622 19.2594 204.037 19.0522 203.242 18.9031L199.911 18.2692C197.997 17.9212 196.572 17.279 195.635 16.3427C194.699 15.3981 194.235 14.1966 194.243 12.7383C194.235 11.4622 194.575 10.3726 195.263 9.46946C195.95 8.558 196.928 7.86198 198.196 7.38139C199.464 6.9008 200.959 6.66051 202.683 6.66051C205.268 6.66051 207.306 7.20324 208.798 8.28871C210.289 9.36588 211.114 10.8491 211.271 12.7383ZM222.917 26.3232C221.699 26.3232 220.618 26.1201 219.673 25.7141C218.737 25.2998 217.996 24.6784 217.449 23.8498C216.91 23.0129 216.641 21.9647 216.641 20.7053C216.641 19.6446 216.827 18.7498 217.2 18.0206C217.573 17.2914 218.087 16.699 218.741 16.2433C219.396 15.7875 220.15 15.4437 221.003 15.2116C221.857 14.9714 222.768 14.8098 223.738 14.7269C224.823 14.6275 225.697 14.5239 226.36 14.4162C227.023 14.3002 227.504 14.1386 227.802 13.9315C228.109 13.716 228.262 13.4136 228.262 13.0241V12.962C228.262 12.324 228.042 11.831 227.603 11.483C227.164 11.1349 226.572 10.9609 225.826 10.9609C225.022 10.9609 224.376 11.1349 223.887 11.483C223.398 11.831 223.087 12.3116 222.955 12.9247L217.349 12.7259C217.515 11.5658 217.942 10.5301 218.629 9.61861C219.325 8.69886 220.278 7.97798 221.488 7.45597C222.706 6.92566 224.169 6.66051 225.876 6.66051C227.094 6.66051 228.216 6.80552 229.244 7.09552C230.271 7.37725 231.166 7.79155 231.928 8.33842C232.691 8.87701 233.279 9.53989 233.693 10.3271C234.116 11.1142 234.327 12.0133 234.327 13.0241V26H228.61V23.3402H228.461C228.121 23.9865 227.686 24.5334 227.156 24.9808C226.634 25.4283 226.016 25.7638 225.304 25.9876C224.599 26.2113 223.804 26.3232 222.917 26.3232ZM224.794 22.3459C225.449 22.3459 226.037 22.2133 226.559 21.9482C227.089 21.683 227.512 21.3184 227.827 20.8544C228.142 20.3821 228.299 19.8352 228.299 19.2138V17.3991C228.125 17.4903 227.914 17.5732 227.665 17.6477C227.425 17.7223 227.16 17.7927 226.87 17.859C226.58 17.9253 226.282 17.9833 225.975 18.033C225.668 18.0827 225.374 18.1283 225.092 18.1697C224.521 18.2609 224.032 18.4018 223.626 18.5923C223.228 18.7829 222.922 19.0315 222.706 19.3381C222.499 19.6364 222.395 19.9927 222.395 20.407C222.395 21.0367 222.619 21.5173 223.067 21.8487C223.522 22.1802 224.098 22.3459 224.794 22.3459ZM240.843 26V6.90909H246.623V10.4141H246.834C247.232 9.25402 247.903 8.33842 248.848 7.66726C249.792 6.99609 250.919 6.66051 252.228 6.66051C253.554 6.66051 254.689 7.00024 255.634 7.67969C256.579 8.35914 257.179 9.2706 257.436 10.4141H257.635C257.991 9.27888 258.687 8.37157 259.723 7.69212C260.759 7.00438 261.981 6.66051 263.39 6.66051C265.196 6.66051 266.663 7.24053 267.79 8.40057C268.916 9.55232 269.48 11.1349 269.48 13.1484V26H263.402V14.5405C263.402 13.5876 263.158 12.8626 262.669 12.3654C262.18 11.86 261.546 11.6072 260.767 11.6072C259.93 11.6072 259.272 11.8807 258.791 12.4276C258.319 12.9661 258.082 13.6912 258.082 14.6026V26H252.241V14.4783C252.241 13.5917 252.001 12.8916 251.52 12.3778C251.039 11.8641 250.406 11.6072 249.618 11.6072C249.088 11.6072 248.62 11.7357 248.214 11.9925C247.808 12.2411 247.489 12.5974 247.257 13.0614C247.033 13.5254 246.921 14.0723 246.921 14.7021V26H240.843Z"/>
</mask>
<path d="M16.2674 0.545454H22.3327V18.1449C22.3245 19.7938 21.9309 21.2356 21.152 22.4702C20.3731 23.6965 19.2959 24.6494 17.9205 25.3288C16.5533 26.0083 14.9706 26.348 13.1726 26.348C11.5817 26.348 10.1358 26.0704 8.83487 25.5153C7.54226 24.9601 6.51065 24.0984 5.74006 22.93C4.97775 21.7617 4.60073 20.2661 4.60902 18.4432H10.7365C10.7614 19.0978 10.8857 19.6571 11.1094 20.1211C11.3414 20.5768 11.6604 20.9207 12.0664 21.1527C12.4724 21.3847 12.9572 21.5007 13.5206 21.5007C14.1089 21.5007 14.6061 21.3764 15.0121 21.1278C15.4181 20.871 15.7247 20.494 15.9318 19.9968C16.1473 19.4996 16.2591 18.8823 16.2674 18.1449V0.545454ZM37.5566 26.3604C35.5514 26.3604 33.8279 25.9503 32.3862 25.13C30.9527 24.3014 29.8465 23.1496 29.0676 21.6747C28.297 20.1915 27.9117 18.4722 27.9117 16.5167C27.9117 14.5529 28.297 12.8336 29.0676 11.3587C29.8465 9.87547 30.9527 8.72372 32.3862 7.90341C33.8279 7.07481 35.5514 6.66051 37.5566 6.66051C39.5618 6.66051 41.2812 7.07481 42.7146 7.90341C44.1564 8.72372 45.2626 9.87547 46.0332 11.3587C46.8121 12.8336 47.2015 14.5529 47.2015 16.5167C47.2015 18.4722 46.8121 20.1915 46.0332 21.6747C45.2626 23.1496 44.1564 24.3014 42.7146 25.13C41.2812 25.9503 39.5618 26.3604 37.5566 26.3604ZM37.5939 21.7741C38.3231 21.7741 38.9404 21.5504 39.4458 21.103C39.9513 20.6555 40.3366 20.0341 40.6017 19.2386C40.8752 18.4432 41.0119 17.5234 41.0119 16.4794C41.0119 15.4188 40.8752 14.4908 40.6017 13.6953C40.3366 12.8999 39.9513 12.2784 39.4458 11.831C38.9404 11.3835 38.3231 11.1598 37.5939 11.1598C36.8399 11.1598 36.2019 11.3835 35.6798 11.831C35.1661 12.2784 34.7725 12.8999 34.4991 13.6953C34.2339 14.4908 34.1014 15.4188 34.1014 16.4794C34.1014 17.5234 34.2339 18.4432 34.4991 19.2386C34.7725 20.0341 35.1661 20.6555 35.6798 21.103C36.2019 21.5504 36.8399 21.7741 37.5939 21.7741ZM58.8427 15.1122V26H52.765V0.545454H58.6439V10.4141H58.8552C59.286 9.23745 59.9903 8.31771 60.9681 7.65483C61.9541 6.99195 63.1597 6.66051 64.5849 6.66051C65.9273 6.66051 67.0956 6.95881 68.0899 7.5554C69.0842 8.1437 69.8548 8.97644 70.4017 10.0536C70.9568 11.1308 71.2303 12.3903 71.222 13.832V26H65.1442V15.0252C65.1525 13.9646 64.8874 13.136 64.3488 12.5394C63.8102 11.9428 63.052 11.6445 62.0743 11.6445C61.4363 11.6445 60.8728 11.7854 60.3839 12.0671C59.9033 12.3406 59.5263 12.7341 59.2529 13.2479C58.9877 13.7616 58.851 14.383 58.8427 15.1122ZM83.5437 15.1122V26H77.4659V6.90909H83.2454V10.4141H83.4567C83.8793 9.24574 84.6002 8.33014 85.6194 7.66726C86.6385 6.99609 87.8524 6.66051 89.261 6.66051C90.6034 6.66051 91.7676 6.96295 92.7536 7.56783C93.7479 8.16442 94.5185 9.0013 95.0654 10.0785C95.6205 11.1474 95.894 12.3986 95.8857 13.832V26H89.8079V15.0252C89.8162 13.9646 89.5469 13.136 89 12.5394C88.4614 11.9428 87.7116 11.6445 86.7504 11.6445C86.1124 11.6445 85.5489 11.7854 85.06 12.0671C84.5795 12.3406 84.2066 12.7341 83.9414 13.2479C83.6846 13.7616 83.552 14.383 83.5437 15.1122ZM105.517 26.3604C104.622 26.3604 103.855 26.0456 103.217 25.4158C102.587 24.7861 102.277 24.0238 102.285 23.1289C102.277 22.2506 102.587 21.5007 103.217 20.8793C103.855 20.2495 104.622 19.9347 105.517 19.9347C106.362 19.9347 107.107 20.2495 107.754 20.8793C108.408 21.5007 108.74 22.2506 108.748 23.1289C108.74 23.7255 108.582 24.2682 108.276 24.7571C107.977 25.246 107.584 25.6354 107.095 25.9254C106.614 26.2154 106.088 26.3604 105.517 26.3604Z" fill="#F85D5D"/>
<path d="M113.184 5.5419V0.545454H134.698V5.5419H126.98V26H120.914V5.5419H113.184ZM141.882 26L136.911 6.90909H143.014L145.586 19.1392H145.748L148.507 6.90909H154.461L157.294 19.0522H157.456L159.954 6.90909H166.057L161.073 26H154.572L151.59 14.8761H151.378L148.395 26H141.882ZM176.678 26.3232C175.46 26.3232 174.378 26.1201 173.434 25.7141C172.497 25.2998 171.756 24.6784 171.209 23.8498C170.67 23.0129 170.401 21.9647 170.401 20.7053C170.401 19.6446 170.588 18.7498 170.96 18.0206C171.333 17.2914 171.847 16.699 172.502 16.2433C173.156 15.7875 173.91 15.4437 174.764 15.2116C175.617 14.9714 176.529 14.8098 177.498 14.7269C178.584 14.6275 179.458 14.5239 180.121 14.4162C180.783 14.3002 181.264 14.1386 181.562 13.9315C181.869 13.716 182.022 13.4136 182.022 13.0241V12.962C182.022 12.324 181.803 11.831 181.364 11.483C180.924 11.1349 180.332 10.9609 179.586 10.9609C178.782 10.9609 178.136 11.1349 177.647 11.483C177.158 11.831 176.848 12.3116 176.715 12.9247L171.11 12.7259C171.275 11.5658 171.702 10.5301 172.39 9.61861C173.086 8.69886 174.039 7.97798 175.248 7.45597C176.466 6.92566 177.929 6.66051 179.636 6.66051C180.854 6.66051 181.977 6.80552 183.004 7.09552C184.032 7.37725 184.926 7.79155 185.689 8.33842C186.451 8.87701 187.039 9.53989 187.454 10.3271C187.876 11.1142 188.088 12.0133 188.088 13.0241V26H182.37V23.3402H182.221C181.881 23.9865 181.446 24.5334 180.916 24.9808C180.394 25.4283 179.777 25.7638 179.064 25.9876C178.36 26.2113 177.564 26.3232 176.678 26.3232ZM178.555 22.3459C179.209 22.3459 179.797 22.2133 180.319 21.9482C180.85 21.683 181.272 21.3184 181.587 20.8544C181.902 20.3821 182.06 19.8352 182.06 19.2138V17.3991C181.886 17.4903 181.674 17.5732 181.426 17.6477C181.185 17.7223 180.92 17.7927 180.63 17.859C180.34 17.9253 180.042 17.9833 179.735 18.033C179.429 18.0827 179.135 18.1283 178.853 18.1697C178.281 18.2609 177.792 18.4018 177.386 18.5923C176.989 18.7829 176.682 19.0315 176.466 19.3381C176.259 19.6364 176.156 19.9927 176.156 20.407C176.156 21.0367 176.379 21.5173 176.827 21.8487C177.283 22.1802 177.859 22.3459 178.555 22.3459ZM211.271 12.7383L205.69 12.8874C205.632 12.4897 205.475 12.1375 205.218 11.831C204.961 11.5161 204.626 11.2717 204.211 11.0977C203.805 10.9154 203.333 10.8242 202.795 10.8242C202.09 10.8242 201.489 10.9651 200.992 11.2468C200.503 11.5285 200.263 11.9097 200.271 12.3903C200.263 12.7631 200.412 13.0863 200.719 13.3597C201.034 13.6332 201.593 13.8527 202.397 14.0185L206.076 14.7145C207.982 15.0791 209.398 15.6839 210.326 16.5291C211.263 17.3743 211.735 18.4929 211.743 19.8849C211.735 21.1941 211.346 22.3335 210.575 23.3029C209.813 24.2724 208.769 25.0264 207.443 25.565C206.117 26.0953 204.601 26.3604 202.894 26.3604C200.168 26.3604 198.018 25.8011 196.443 24.6825C194.877 23.5556 193.982 22.0476 193.759 20.1584L199.762 20.0092C199.894 20.7053 200.238 21.2356 200.793 21.6001C201.349 21.9647 202.057 22.147 202.919 22.147C203.698 22.147 204.332 22.002 204.82 21.712C205.309 21.422 205.558 21.0367 205.566 20.5561C205.558 20.1252 205.367 19.7814 204.994 19.5245C204.622 19.2594 204.037 19.0522 203.242 18.9031L199.911 18.2692C197.997 17.9212 196.572 17.279 195.635 16.3427C194.699 15.3981 194.235 14.1966 194.243 12.7383C194.235 11.4622 194.575 10.3726 195.263 9.46946C195.95 8.558 196.928 7.86198 198.196 7.38139C199.464 6.9008 200.959 6.66051 202.683 6.66051C205.268 6.66051 207.306 7.20324 208.798 8.28871C210.289 9.36588 211.114 10.8491 211.271 12.7383ZM222.917 26.3232C221.699 26.3232 220.618 26.1201 219.673 25.7141C218.737 25.2998 217.996 24.6784 217.449 23.8498C216.91 23.0129 216.641 21.9647 216.641 20.7053C216.641 19.6446 216.827 18.7498 217.2 18.0206C217.573 17.2914 218.087 16.699 218.741 16.2433C219.396 15.7875 220.15 15.4437 221.003 15.2116C221.857 14.9714 222.768 14.8098 223.738 14.7269C224.823 14.6275 225.697 14.5239 226.36 14.4162C227.023 14.3002 227.504 14.1386 227.802 13.9315C228.109 13.716 228.262 13.4136 228.262 13.0241V12.962C228.262 12.324 228.042 11.831 227.603 11.483C227.164 11.1349 226.572 10.9609 225.826 10.9609C225.022 10.9609 224.376 11.1349 223.887 11.483C223.398 11.831 223.087 12.3116 222.955 12.9247L217.349 12.7259C217.515 11.5658 217.942 10.5301 218.629 9.61861C219.325 8.69886 220.278 7.97798 221.488 7.45597C222.706 6.92566 224.169 6.66051 225.876 6.66051C227.094 6.66051 228.216 6.80552 229.244 7.09552C230.271 7.37725 231.166 7.79155 231.928 8.33842C232.691 8.87701 233.279 9.53989 233.693 10.3271C234.116 11.1142 234.327 12.0133 234.327 13.0241V26H228.61V23.3402H228.461C228.121 23.9865 227.686 24.5334 227.156 24.9808C226.634 25.4283 226.016 25.7638 225.304 25.9876C224.599 26.2113 223.804 26.3232 222.917 26.3232ZM224.794 22.3459C225.449 22.3459 226.037 22.2133 226.559 21.9482C227.089 21.683 227.512 21.3184 227.827 20.8544C228.142 20.3821 228.299 19.8352 228.299 19.2138V17.3991C228.125 17.4903 227.914 17.5732 227.665 17.6477C227.425 17.7223 227.16 17.7927 226.87 17.859C226.58 17.9253 226.282 17.9833 225.975 18.033C225.668 18.0827 225.374 18.1283 225.092 18.1697C224.521 18.2609 224.032 18.4018 223.626 18.5923C223.228 18.7829 222.922 19.0315 222.706 19.3381C222.499 19.6364 222.395 19.9927 222.395 20.407C222.395 21.0367 222.619 21.5173 223.067 21.8487C223.522 22.1802 224.098 22.3459 224.794 22.3459ZM240.843 26V6.90909H246.623V10.4141H246.834C247.232 9.25402 247.903 8.33842 248.848 7.66726C249.792 6.99609 250.919 6.66051 252.228 6.66051C253.554 6.66051 254.689 7.00024 255.634 7.67969C256.579 8.35914 257.179 9.2706 257.436 10.4141H257.635C257.991 9.27888 258.687 8.37157 259.723 7.69212C260.759 7.00438 261.981 6.66051 263.39 6.66051C265.196 6.66051 266.663 7.24053 267.79 8.40057C268.916 9.55232 269.48 11.1349 269.48 13.1484V26H263.402V14.5405C263.402 13.5876 263.158 12.8626 262.669 12.3654C262.18 11.86 261.546 11.6072 260.767 11.6072C259.93 11.6072 259.272 11.8807 258.791 12.4276C258.319 12.9661 258.082 13.6912 258.082 14.6026V26H252.241V14.4783C252.241 13.5917 252.001 12.8916 251.52 12.3778C251.039 11.8641 250.406 11.6072 249.618 11.6072C249.088 11.6072 248.62 11.7357 248.214 11.9925C247.808 12.2411 247.489 12.5974 247.257 13.0614C247.033 13.5254 246.921 14.0723 246.921 14.7021V26H240.843Z" fill="#333538"/>
<path d="M16.2674 0.545454V-0.454546H15.2674V0.545454H16.2674ZM22.3327 0.545454H23.3327V-0.454546H22.3327V0.545454ZM22.3327 18.1449L23.3327 18.1499V18.1449H22.3327ZM21.152 22.4702L21.9961 23.0063L21.9977 23.0037L21.152 22.4702ZM17.9205 25.3288L17.4776 24.4323L17.4754 24.4333L17.9205 25.3288ZM8.83487 25.5153L8.44024 26.4341L8.44237 26.435L8.83487 25.5153ZM5.74006 22.93L4.90255 23.4765L4.90528 23.4806L5.74006 22.93ZM4.60902 18.4432V17.4432H3.61356L3.60903 18.4386L4.60902 18.4432ZM10.7365 18.4432L11.7358 18.4052L11.6993 17.4432H10.7365V18.4432ZM11.1094 20.1211L10.2086 20.5554L10.2133 20.5651L10.2182 20.5748L11.1094 20.1211ZM12.0664 21.1527L12.5625 20.2845L12.5625 20.2845L12.0664 21.1527ZM15.0121 21.1278L15.5342 21.9807L15.5405 21.9769L15.5467 21.9729L15.0121 21.1278ZM15.9318 19.9968L15.0142 19.5992L15.0087 19.6122L15.9318 19.9968ZM16.2674 18.1449L17.2674 18.1561V18.1449H16.2674ZM16.2674 1.54545H22.3327V-0.454546H16.2674V1.54545ZM21.3327 0.545454V18.1449H23.3327V0.545454H21.3327ZM21.3328 18.1399C21.3253 19.6265 20.9728 20.8801 20.3062 21.9366L21.9977 23.0037C22.889 21.591 23.3236 19.9611 23.3327 18.1499L21.3328 18.1399ZM20.3079 21.934C19.6328 22.9969 18.6984 23.8292 17.4776 24.4323L18.3633 26.2254C19.8935 25.4696 21.1134 24.3961 21.9961 23.0063L20.3079 21.934ZM17.4754 24.4333C16.2691 25.0328 14.8435 25.348 13.1726 25.348V27.348C15.0978 27.348 16.8375 26.9837 18.3655 26.2243L17.4754 24.4333ZM13.1726 25.348C11.6998 25.348 10.3896 25.0915 9.22738 24.5955L8.44237 26.435C9.88194 27.0494 11.4636 27.348 13.1726 27.348V25.348ZM9.2295 24.5964C8.11544 24.118 7.23725 23.3838 6.57483 22.3794L4.90528 23.4806C5.78406 24.813 6.96907 25.8023 8.44024 26.4341L9.2295 24.5964ZM6.57755 22.3836C5.95042 21.4224 5.60134 20.1342 5.60901 18.4477L3.60903 18.4386C3.60012 20.398 4.00507 22.101 4.90256 23.4765L6.57755 22.3836ZM4.60902 19.4432H10.7365V17.4432H4.60902V19.4432ZM9.73723 18.4811C9.76594 19.2372 9.91126 19.9387 10.2086 20.5554L12.0101 19.6868C11.86 19.3755 11.7568 18.9583 11.7358 18.4052L9.73723 18.4811ZM10.2182 20.5748C10.53 21.1873 10.9792 21.6832 11.5703 22.0209L12.5625 20.2845C12.3416 20.1582 12.1527 19.9663 12.0005 19.6674L10.2182 20.5748ZM11.5703 22.0209C12.1556 22.3554 12.8187 22.5007 13.5206 22.5007V20.5007C13.0956 20.5007 12.7893 20.414 12.5625 20.2845L11.5703 22.0209ZM13.5206 22.5007C14.2499 22.5007 14.9378 22.3458 15.5342 21.9807L14.4899 20.275C14.2743 20.407 13.9679 20.5007 13.5206 20.5007V22.5007ZM15.5467 21.9729C16.1471 21.5931 16.5786 21.0444 16.8549 20.3814L15.0087 19.6122C14.8707 19.9435 14.689 20.1489 14.4774 20.2828L15.5467 21.9729ZM16.8494 20.3944C17.1331 19.7397 17.2581 18.9815 17.2673 18.1561L15.2675 18.1337C15.2602 18.7832 15.1614 19.2596 15.0143 19.5992L16.8494 20.3944ZM17.2674 18.1449V0.545454H15.2674V18.1449H17.2674ZM32.3862 25.13L31.8857 25.9958L31.8916 25.9991L32.3862 25.13ZM29.0676 21.6747L28.1802 22.1358L28.1834 22.1417L29.0676 21.6747ZM29.0676 11.3587L28.1823 10.8937L28.1813 10.8956L29.0676 11.3587ZM32.3862 7.90341L32.8828 8.77134L32.8845 8.77042L32.3862 7.90341ZM42.7146 7.90341L42.2142 8.7692L42.2201 8.77257L42.7146 7.90341ZM46.0332 11.3587L45.1458 11.8197L45.1489 11.8256L46.0332 11.3587ZM46.0332 21.6747L45.1478 21.2098L45.1469 21.2116L46.0332 21.6747ZM42.7146 25.13L43.2113 25.9979L43.2129 25.997L42.7146 25.13ZM39.4458 21.103L38.783 20.3542L38.783 20.3542L39.4458 21.103ZM40.6017 19.2386L39.656 18.9135L39.653 18.9224L40.6017 19.2386ZM40.6017 13.6953L39.653 14.0116L39.656 14.0204L40.6017 13.6953ZM39.4458 11.831L40.1087 11.0822L40.1087 11.0822L39.4458 11.831ZM35.6798 11.831L35.029 11.0717L35.0231 11.0769L35.6798 11.831ZM34.4991 13.6953L33.5534 13.3702L33.5504 13.3791L34.4991 13.6953ZM34.4991 19.2386L33.5504 19.5549L33.5534 19.5637L34.4991 19.2386ZM35.6798 21.103L35.023 21.8571L35.0291 21.8622L35.6798 21.103ZM37.5566 25.3604C35.6887 25.3604 34.1432 24.9791 32.8807 24.2608L31.8916 25.9991C33.5127 26.9214 35.4141 27.3604 37.5566 27.3604V25.3604ZM32.8866 24.2642C31.6173 23.5305 30.6436 22.5176 29.9519 21.2077L28.1834 22.1417C29.0494 23.7817 30.2881 25.0722 31.8857 25.9957L32.8866 24.2642ZM29.955 21.2137C29.27 19.8953 28.9117 18.339 28.9117 16.5167H26.9117C26.9117 18.6054 27.324 20.4878 28.1803 22.1358L29.955 21.2137ZM28.9117 16.5167C28.9117 14.6852 29.2704 13.1301 29.954 11.8217L28.1813 10.8956C27.3237 12.5371 26.9117 14.4206 26.9117 16.5167H28.9117ZM29.953 11.8236C30.6447 10.5064 31.6172 9.49564 32.8828 8.77134L31.8895 7.03547C30.2882 7.9518 29.0484 9.2445 28.1823 10.8937L29.953 11.8236ZM32.8845 8.77042C34.1462 8.04528 35.6903 7.66051 37.5566 7.66051V5.66051C35.4125 5.66051 33.5097 6.10434 31.8879 7.03639L32.8845 8.77042ZM37.5566 7.66051C39.4231 7.66051 40.962 8.04535 42.2142 8.76918L43.2151 7.03764C41.6004 6.10427 39.7005 5.66051 37.5566 5.66051V7.66051ZM42.2201 8.77257C43.493 9.49678 44.4634 10.5062 45.1458 11.8197L46.9206 10.8976C46.0618 9.24475 44.8198 7.95066 43.2092 7.03424L42.2201 8.77257ZM45.1489 11.8256C45.8394 13.1331 46.2015 14.6868 46.2015 16.5167H48.2015C48.2015 14.419 47.7848 12.534 46.9175 10.8917L45.1489 11.8256ZM46.2015 16.5167C46.2015 18.3373 45.8397 19.8922 45.1478 21.2098L46.9185 22.1396C47.7844 20.4908 48.2015 18.607 48.2015 16.5167H46.2015ZM45.1469 21.2116C44.4644 22.5178 43.4928 23.5294 42.2164 24.263L43.2129 25.997C44.82 25.0734 46.0608 23.7814 46.9195 22.1378L45.1469 21.2116ZM42.218 24.262C40.965 24.979 39.4248 25.3604 37.5566 25.3604V27.3604C39.6989 27.3604 41.5973 26.9215 43.2113 25.9979L42.218 24.262ZM37.5939 22.7741C38.5461 22.7741 39.4051 22.4746 40.1087 21.8517L38.783 20.3542C38.4757 20.6262 38.1001 20.7741 37.5939 20.7741V22.7741ZM40.1087 21.8517C40.7741 21.2627 41.243 20.4771 41.5504 19.5549L39.653 18.9224C39.4302 19.5911 39.1285 20.0484 38.783 20.3542L40.1087 21.8517ZM41.5474 19.5637C41.8643 18.6419 42.0119 17.6084 42.0119 16.4794H40.0119C40.0119 17.4384 39.886 18.2445 39.656 18.9136L41.5474 19.5637ZM42.0119 16.4794C42.0119 15.3357 41.8648 14.2935 41.5474 13.3702L39.656 14.0204C39.8855 14.688 40.0119 15.5019 40.0119 16.4794H42.0119ZM41.5504 13.3791C41.243 12.4568 40.7741 11.6713 40.1087 11.0822L38.783 12.5797C39.1285 12.8855 39.4302 13.3429 39.653 14.0115L41.5504 13.3791ZM40.1087 11.0822C39.4051 10.4593 38.5461 10.1598 37.5939 10.1598V12.1598C38.1001 12.1598 38.4757 12.3077 38.783 12.5797L40.1087 11.0822ZM37.5939 10.1598C36.626 10.1598 35.7503 10.4535 35.0291 11.0717L36.3306 12.5902C36.6534 12.3135 37.0538 12.1598 37.5939 12.1598V10.1598ZM35.0231 11.0769C34.3494 11.6637 33.8706 12.4475 33.5534 13.3702L35.4448 14.0204C35.6745 13.3522 35.9829 12.8932 36.3366 12.585L35.0231 11.0769ZM33.5504 13.3791C33.2436 14.2994 33.1014 15.3384 33.1014 16.4794H35.1014C35.1014 15.4991 35.2242 14.6821 35.4478 14.0115L33.5504 13.3791ZM33.1014 16.4794C33.1014 17.6057 33.2441 18.636 33.5504 19.5549L35.4478 18.9224C35.2238 18.2504 35.1014 17.4412 35.1014 16.4794H33.1014ZM33.5534 19.5637C33.8706 20.4864 34.3494 21.2703 35.0231 21.8571L36.3366 20.3489C35.9829 20.0408 35.6745 19.5818 35.4448 18.9136L33.5534 19.5637ZM35.0291 21.8622C35.7503 22.4805 36.626 22.7741 37.5939 22.7741V20.7741C37.0538 20.7741 36.6534 20.6204 36.3306 20.3437L35.0291 21.8622ZM58.8427 15.1122L57.8427 15.1009V15.1122H58.8427ZM58.8427 26V27H59.8427V26H58.8427ZM52.765 26H51.765V27H52.765V26ZM52.765 0.545454V-0.454546H51.765V0.545454H52.765ZM58.6439 0.545454H59.6439V-0.454546H58.6439V0.545454ZM58.6439 10.4141H57.6439V11.4141H58.6439V10.4141ZM58.8552 10.4141V11.4141H59.5539L59.7942 10.7579L58.8552 10.4141ZM60.9681 7.65483L60.4102 6.82492L60.4069 6.82712L60.9681 7.65483ZM68.0899 7.5554L67.5754 8.41291L67.5807 8.41604L68.0899 7.5554ZM70.4017 10.0536L69.51 10.5063L69.5128 10.5117L70.4017 10.0536ZM71.222 13.832L70.222 13.8263V13.832H71.222ZM71.222 26V27H72.222V26H71.222ZM65.1442 26H64.1442V27H65.1442V26ZM65.1442 15.0252L64.1442 15.0174V15.0252H65.1442ZM64.3488 12.5394L63.6065 13.2095L63.6065 13.2095L64.3488 12.5394ZM60.3839 12.0671L60.8785 12.9363L60.8832 12.9335L60.3839 12.0671ZM59.2529 13.2479L58.3701 12.778L58.3643 12.7892L59.2529 13.2479ZM57.8427 15.1122V26H59.8427V15.1122H57.8427ZM58.8427 25H52.765V27H58.8427V25ZM53.765 26V0.545454H51.765V26H53.765ZM52.765 1.54545H58.6439V-0.454546H52.765V1.54545ZM57.6439 0.545454V10.4141H59.6439V0.545454H57.6439ZM58.6439 11.4141H58.8552V9.41406H58.6439V11.4141ZM59.7942 10.7579C60.1576 9.76554 60.7359 9.02038 61.5293 8.48254L60.4069 6.82712C59.2448 7.61504 58.4145 8.70937 57.9161 10.0702L59.7942 10.7579ZM61.526 8.48473C62.3166 7.95326 63.3182 7.66051 64.5849 7.66051V5.66051C63.0013 5.66051 61.5917 6.03065 60.4102 6.82493L61.526 8.48473ZM64.5849 7.66051C65.775 7.66051 66.7596 7.92342 67.5754 8.41289L68.6044 6.69791C67.4315 5.99419 66.0795 5.66051 64.5849 5.66051V7.66051ZM67.5807 8.41604C68.4036 8.90295 69.0451 9.59059 69.51 10.5063L71.2934 9.60093C70.6645 8.3623 69.7648 7.38445 68.5991 6.69476L67.5807 8.41604ZM69.5128 10.5117C69.9813 11.4207 70.2296 12.5154 70.222 13.8263L72.222 13.8378C72.231 12.2652 71.9324 10.8409 71.2906 9.5955L69.5128 10.5117ZM70.222 13.832V26H72.222V13.832H70.222ZM71.222 25H65.1442V27H71.222V25ZM66.1442 26V15.0252H64.1442V26H66.1442ZM66.1442 15.033C66.1538 13.804 65.8451 12.7046 65.091 11.8693L63.6065 13.2095C63.9296 13.5674 64.1512 14.1252 64.1443 15.0174L66.1442 15.033ZM65.091 11.8693C64.3225 11.018 63.2686 10.6445 62.0743 10.6445V12.6445C62.8354 12.6445 63.2979 12.8676 63.6065 13.2095L65.091 11.8693ZM62.0743 10.6445C61.2843 10.6445 60.5444 10.8205 59.8846 11.2007L60.8832 12.9335C61.2012 12.7503 61.5882 12.6445 62.0743 12.6445V10.6445ZM59.8894 11.198C59.2354 11.5701 58.7277 12.1063 58.3701 12.778L60.1356 13.7177C60.325 13.362 60.5713 13.111 60.8785 12.9363L59.8894 11.198ZM58.3643 12.7892C58.0115 13.4727 57.8524 14.2556 57.8428 15.1009L59.8427 15.1236C59.8496 14.5105 59.964 14.0505 60.1415 13.7065L58.3643 12.7892ZM83.5437 15.1122L82.5437 15.1009V15.1122H83.5437ZM83.5437 26V27H84.5437V26H83.5437ZM77.4659 26H76.4659V27H77.4659V26ZM77.4659 6.90909V5.90909H76.4659V6.90909H77.4659ZM83.2454 6.90909H84.2454V5.90909H83.2454V6.90909ZM83.2454 10.4141H82.2454V11.4141H83.2454V10.4141ZM83.4567 10.4141V11.4141H84.1584L84.3971 10.7542L83.4567 10.4141ZM85.6194 7.66726L86.1646 8.50556L86.1693 8.50243L85.6194 7.66726ZM92.7536 7.56783L92.2307 8.42026L92.2391 8.42532L92.7536 7.56783ZM95.0654 10.0785L94.1737 10.5312L94.1779 10.5394L95.0654 10.0785ZM95.8857 13.832L94.8857 13.8263V13.832H95.8857ZM95.8857 26V27H96.8857V26H95.8857ZM89.8079 26H88.8079V27H89.8079V26ZM89.8079 15.0252L88.8079 15.0174V15.0252H89.8079ZM89 12.5394L88.2577 13.2095L88.2629 13.2151L89 12.5394ZM85.06 12.0671L85.5546 12.9363L85.5593 12.9335L85.06 12.0671ZM83.9414 13.2479L83.0527 12.7892L83.047 12.8007L83.9414 13.2479ZM82.5437 15.1122V26H84.5437V15.1122H82.5437ZM83.5437 25H77.4659V27H83.5437V25ZM78.4659 26V6.90909H76.4659V26H78.4659ZM77.4659 7.90909H83.2454V5.90909H77.4659V7.90909ZM82.2454 6.90909V10.4141H84.2454V6.90909H82.2454ZM83.2454 11.4141H83.4567V9.41406H83.2454V11.4141ZM84.3971 10.7542C84.7474 9.78567 85.3321 9.04702 86.1646 8.50555L85.0741 6.82897C83.8683 7.61326 83.0112 8.70581 82.5163 10.0739L84.3971 10.7542ZM86.1693 8.50243C87.0012 7.95463 88.017 7.66051 89.261 7.66051V5.66051C87.6879 5.66051 86.2759 6.03756 85.0694 6.83209L86.1693 8.50243ZM89.261 7.66051C90.4489 7.66051 91.4258 7.92648 92.2307 8.42022L93.2765 6.71543C92.1093 5.99942 90.7578 5.66051 89.261 5.66051V7.66051ZM92.2391 8.42532C93.0652 8.92097 93.7082 9.61435 94.1737 10.5312L95.957 9.62579C95.3288 8.38826 94.4306 7.40786 93.2681 6.71033L92.2391 8.42532ZM94.1779 10.5394C94.6452 11.4391 94.8932 12.5244 94.8857 13.8263L96.8857 13.8378C96.8947 12.2727 96.5958 10.8556 95.9528 9.61756L94.1779 10.5394ZM94.8857 13.832V26H96.8857V13.832H94.8857ZM95.8857 25H89.8079V27H95.8857V25ZM90.8079 26V15.0252H88.8079V26H90.8079ZM90.8079 15.033C90.8175 13.8003 90.5026 12.6987 89.7372 11.8637L88.2629 13.2151C88.5912 13.5733 88.8149 14.1289 88.8079 15.0174L90.8079 15.033ZM89.7423 11.8693C88.9771 11.0217 87.9341 10.6445 86.7504 10.6445V12.6445C87.489 12.6445 87.9458 12.8639 88.2578 13.2095L89.7423 11.8693ZM86.7504 10.6445C85.9605 10.6445 85.2205 10.8205 84.5608 11.2007L85.5593 12.9335C85.8773 12.7503 86.2643 12.6445 86.7504 12.6445V10.6445ZM84.5655 11.198C83.9087 11.5717 83.4025 12.1116 83.0528 12.7892L84.8301 13.7065C85.0106 13.3566 85.2502 13.1094 85.5546 12.9363L84.5655 11.198ZM83.047 12.8007C82.7067 13.4813 82.5533 14.2599 82.5438 15.1009L84.5436 15.1236C84.5507 14.5062 84.6624 14.0419 84.8359 13.6951L83.047 12.8007ZM103.217 25.4158L102.51 26.123L102.515 26.1276L103.217 25.4158ZM102.285 23.1289L103.285 23.1382L103.285 23.1288L103.285 23.1195L102.285 23.1289ZM103.217 20.8793L103.92 21.591L103.92 21.591L103.217 20.8793ZM107.754 20.8793L107.056 21.5956L107.065 21.6045L107.754 20.8793ZM108.748 23.1289L109.748 23.1428L109.748 23.1311L109.748 23.1195L108.748 23.1289ZM108.276 24.7571L107.429 24.2258L107.422 24.2362L108.276 24.7571ZM107.095 25.9254L106.585 25.0653L106.578 25.0692L107.095 25.9254ZM105.517 25.3604C104.885 25.3604 104.371 25.1495 103.92 24.7041L102.515 26.1276C103.34 26.9416 104.358 27.3604 105.517 27.3604V25.3604ZM103.924 24.7087C103.485 24.2698 103.279 23.7661 103.285 23.1382L101.285 23.1196C101.274 24.2815 101.689 25.3024 102.51 26.1229L103.924 24.7087ZM103.285 23.1195C103.279 22.5141 103.481 22.0238 103.92 21.591L102.515 20.1675C101.694 20.9776 101.274 21.987 101.285 23.1383L103.285 23.1195ZM103.92 21.591C104.371 21.1456 104.885 20.9347 105.517 20.9347V18.9347C104.358 18.9347 103.34 19.3535 102.515 20.1675L103.92 21.591ZM105.517 20.9347C106.082 20.9347 106.582 21.1341 107.056 21.5955L108.452 20.163C107.633 19.3649 106.641 18.9347 105.517 18.9347V20.9347ZM107.065 21.6045C107.529 22.0452 107.742 22.5393 107.748 23.1383L109.748 23.1195C109.737 21.9619 109.287 20.9562 108.442 20.154L107.065 21.6045ZM107.748 23.115C107.742 23.5349 107.634 23.8976 107.429 24.2258L109.123 25.2884C109.53 24.6389 109.737 23.9161 109.748 23.1428L107.748 23.115ZM107.422 24.2362C107.208 24.5868 106.932 24.8593 106.585 25.0654L107.605 26.7855C108.236 26.4115 108.747 25.9052 109.129 25.278L107.422 24.2362ZM106.578 25.0692C106.257 25.2633 105.91 25.3604 105.517 25.3604V27.3604C106.267 27.3604 106.972 27.1675 107.612 26.7816L106.578 25.0692ZM113.184 5.5419H112.184V6.5419H113.184V5.5419ZM113.184 0.545454V-0.454546H112.184V0.545454H113.184ZM134.698 0.545454H135.698V-0.454546H134.698V0.545454ZM134.698 5.5419V6.5419H135.698V5.5419H134.698ZM126.98 5.5419V4.5419H125.98V5.5419H126.98ZM126.98 26V27H127.98V26H126.98ZM120.914 26H119.914V27H120.914V26ZM120.914 5.5419H121.914V4.5419H120.914V5.5419ZM114.184 5.5419V0.545454H112.184V5.5419H114.184ZM113.184 1.54545H134.698V-0.454546H113.184V1.54545ZM133.698 0.545454V5.5419H135.698V0.545454H133.698ZM134.698 4.5419H126.98V6.5419H134.698V4.5419ZM125.98 5.5419V26H127.98V5.5419H125.98ZM126.98 25H120.914V27H126.98V25ZM121.914 26V5.5419H119.914V26H121.914ZM120.914 4.5419H113.184V6.5419H120.914V4.5419ZM141.882 26L140.915 26.252L141.11 27H141.882V26ZM136.911 6.90909V5.90909H135.617L135.943 7.1611L136.911 6.90909ZM143.014 6.90909L143.992 6.70323L143.825 5.90909H143.014V6.90909ZM145.586 19.1392L144.608 19.3451L144.775 20.1392H145.586V19.1392ZM145.748 19.1392V20.1392H146.547L146.723 19.3593L145.748 19.1392ZM148.507 6.90909V5.90909H147.708L147.532 6.68901L148.507 6.90909ZM154.461 6.90909L155.434 6.68183L155.254 5.90909H154.461V6.90909ZM157.294 19.0522L156.321 19.2795L156.501 20.0522H157.294V19.0522ZM157.456 19.0522V20.0522H158.271L158.435 19.2537L157.456 19.0522ZM159.954 6.90909V5.90909H159.139L158.975 6.70758L159.954 6.90909ZM166.057 6.90909L167.024 7.16169L167.351 5.90909H166.057V6.90909ZM161.073 26V27H161.845L162.04 26.2526L161.073 26ZM154.572 26L153.607 26.259L153.805 27H154.572V26ZM151.59 14.8761L152.555 14.6171L152.357 13.8761H151.59V14.8761ZM151.378 14.8761V13.8761H150.611L150.412 14.6171L151.378 14.8761ZM148.395 26V27H149.162L149.361 26.259L148.395 26ZM142.85 25.748L137.879 6.65708L135.943 7.1611L140.915 26.252L142.85 25.748ZM136.911 7.90909H143.014V5.90909H136.911V7.90909ZM142.035 7.11495L144.608 19.3451L146.565 18.9333L143.992 6.70323L142.035 7.11495ZM145.586 20.1392H145.748V18.1392H145.586V20.1392ZM146.723 19.3593L149.483 7.12917L147.532 6.68901L144.772 18.9191L146.723 19.3593ZM148.507 7.90909H154.461V5.90909H148.507V7.90909ZM153.487 7.13635L156.321 19.2795L158.268 18.8249L155.434 6.68183L153.487 7.13635ZM157.294 20.0522H157.456V18.0522H157.294V20.0522ZM158.435 19.2537L160.934 7.1106L158.975 6.70758L156.477 18.8507L158.435 19.2537ZM159.954 7.90909H166.057V5.90909H159.954V7.90909ZM165.089 6.65649L160.105 25.7474L162.04 26.2526L167.024 7.16169L165.089 6.65649ZM161.073 25H154.572V27H161.073V25ZM155.538 25.741L152.555 14.6171L150.624 15.1351L153.607 26.259L155.538 25.741ZM151.59 13.8761H151.378V15.8761H151.59V13.8761ZM150.412 14.6171L147.429 25.741L149.361 26.259L152.344 15.1351L150.412 14.6171ZM148.395 25H141.882V27H148.395V25ZM173.434 25.7141L173.029 26.6287L173.039 26.6329L173.434 25.7141ZM171.209 23.8498L170.368 24.391L170.374 24.4006L171.209 23.8498ZM170.96 18.0206L170.07 17.5653L170.07 17.5653L170.96 18.0206ZM172.502 16.2433L173.073 17.0639L173.073 17.0639L172.502 16.2433ZM174.764 15.2116L175.026 16.1767L175.035 16.1742L174.764 15.2116ZM177.498 14.7269L177.583 15.7233L177.589 15.7227L177.498 14.7269ZM180.121 14.4162L180.281 15.4033L180.293 15.4012L180.121 14.4162ZM181.562 13.9315L182.133 14.7528L182.137 14.7497L181.562 13.9315ZM181.364 11.483L181.985 10.6992L181.985 10.6992L181.364 11.483ZM177.647 11.483L177.067 10.6683L177.067 10.6683L177.647 11.483ZM176.715 12.9247L176.68 13.9241L177.516 13.9537L177.692 13.136L176.715 12.9247ZM171.11 12.7259L170.12 12.5844L169.962 13.6858L171.074 13.7252L171.11 12.7259ZM172.39 9.61861L171.592 9.01516L171.592 9.01629L172.39 9.61861ZM175.248 7.45597L175.645 8.37414L175.648 8.37284L175.248 7.45597ZM183.004 7.09552L182.732 8.05795L182.74 8.05993L183.004 7.09552ZM185.689 8.33842L185.106 9.15098L185.112 9.15514L185.689 8.33842ZM187.454 10.3271L186.569 10.7928L186.573 10.8001L187.454 10.3271ZM188.088 26V27H189.088V26H188.088ZM182.37 26H181.37V27H182.37V26ZM182.37 23.3402H183.37V22.3402H182.37V23.3402ZM182.221 23.3402V22.3402H181.617L181.336 22.8749L182.221 23.3402ZM180.916 24.9808L180.271 24.2165L180.265 24.2216L180.916 24.9808ZM179.064 25.9876L178.765 25.0335L178.761 25.0345L179.064 25.9876ZM180.319 21.9482L179.872 21.0537L179.867 21.0566L180.319 21.9482ZM181.587 20.8544L182.415 21.4159L182.419 21.4091L181.587 20.8544ZM182.06 17.3991H183.06V15.7465L181.596 16.5133L182.06 17.3991ZM181.426 17.6477L181.138 16.6899L181.129 16.6927L181.426 17.6477ZM179.735 18.033L179.895 19.0201L179.895 19.0201L179.735 18.033ZM178.853 18.1697L178.707 17.1803L178.695 17.1822L178.853 18.1697ZM177.386 18.5923L176.961 17.6871L176.954 17.6905L177.386 18.5923ZM176.466 19.3381L175.648 18.7631L175.645 18.7677L176.466 19.3381ZM176.827 21.8487L176.232 22.6523L176.239 22.6575L176.827 21.8487ZM176.678 25.3232C175.571 25.3232 174.628 25.1388 173.829 24.7954L173.039 26.6329C174.129 27.1014 175.349 27.3232 176.678 27.3232V25.3232ZM173.838 24.7997C173.072 24.4603 172.482 23.9624 172.044 23.2989L170.374 24.4006C171.03 25.3943 171.923 26.1394 173.029 26.6286L173.838 24.7997ZM172.05 23.3086C171.64 22.671 171.401 21.8235 171.401 20.7053H169.401C169.401 22.106 169.701 23.3548 170.368 24.391L172.05 23.3086ZM171.401 20.7053C171.401 19.7578 171.568 19.0287 171.851 18.4759L170.07 17.5653C169.607 18.4708 169.401 19.5315 169.401 20.7053H171.401ZM171.851 18.4759C172.151 17.8888 172.557 17.4233 173.073 17.0639L171.93 15.4226C171.137 15.9746 170.516 16.6941 170.07 17.5653L171.851 18.4759ZM173.073 17.0639C173.624 16.6804 174.271 16.3818 175.026 16.1766L174.501 14.2467C173.549 14.5055 172.689 14.8947 171.93 15.4226L173.073 17.0639ZM175.035 16.1742C175.822 15.9526 176.671 15.8013 177.583 15.7233L177.413 13.7305C176.387 13.8183 175.412 13.9901 174.493 14.2491L175.035 16.1742ZM177.589 15.7227C178.686 15.6223 179.586 15.5163 180.281 15.4032L179.96 13.4291C179.33 13.5316 178.481 13.6326 177.407 13.7311L177.589 15.7227ZM180.293 15.4012C180.997 15.278 181.653 15.0863 182.133 14.7528L180.992 13.1101C180.876 13.1909 180.57 13.3224 179.948 13.4312L180.293 15.4012ZM182.137 14.7497C182.723 14.3384 183.022 13.7241 183.022 13.0241H181.022C181.022 13.0559 181.019 13.0748 181.017 13.0836C181.015 13.092 181.014 13.0934 181.015 13.091C181.017 13.0884 181.018 13.0876 181.016 13.0896C181.014 13.0919 181.006 13.1003 180.987 13.1133L182.137 14.7497ZM183.022 13.0241V12.962H181.022V13.0241H183.022ZM183.022 12.962C183.022 12.0665 182.698 11.2648 181.985 10.6992L180.742 12.2667C180.907 12.3971 181.022 12.5815 181.022 12.962H183.022ZM181.985 10.6992C181.318 10.1709 180.483 9.96094 179.586 9.96094V11.9609C180.181 11.9609 180.531 12.099 180.742 12.2667L181.985 10.6992ZM179.586 9.96094C178.644 9.96094 177.775 10.1649 177.067 10.6683L178.227 12.2976C178.498 12.105 178.921 11.9609 179.586 11.9609V9.96094ZM177.067 10.6683C176.365 11.1679 175.92 11.8688 175.738 12.7134L177.692 13.136C177.775 12.7544 177.951 12.494 178.227 12.2976L177.067 10.6683ZM176.751 11.9253L171.145 11.7265L171.074 13.7252L176.68 13.9241L176.751 11.9253ZM172.1 12.8673C172.242 11.87 172.605 10.9938 173.188 10.2209L171.592 9.01629C170.799 10.0664 170.309 11.2616 170.12 12.5844L172.1 12.8673ZM173.187 10.2221C173.765 9.45874 174.571 8.83756 175.645 8.37413L174.852 6.5378C173.507 7.11841 172.407 7.93899 171.592 9.01516L173.187 10.2221ZM175.648 8.37284C176.709 7.9106 178.029 7.66051 179.636 7.66051V5.66051C177.829 5.66051 176.224 5.94073 174.849 6.53909L175.648 8.37284ZM179.636 7.66051C180.775 7.66051 181.805 7.79608 182.732 8.05792L183.276 6.13313C182.149 5.81495 180.933 5.66051 179.636 5.66051V7.66051ZM182.74 8.05993C183.668 8.31451 184.452 8.68188 185.106 9.15096L186.272 7.52588C185.401 6.90121 184.395 6.43999 183.269 6.13112L182.74 8.05993ZM185.112 9.15514C185.752 9.6073 186.232 10.1522 186.569 10.7928L188.339 9.86131C187.847 8.92758 187.15 8.14673 186.266 7.5217L185.112 9.15514ZM186.573 10.8001C186.907 11.4236 187.088 12.1563 187.088 13.0241H189.088C189.088 11.8702 188.845 10.8049 188.335 9.85407L186.573 10.8001ZM187.088 13.0241V26H189.088V13.0241H187.088ZM188.088 25H182.37V27H188.088V25ZM183.37 26V23.3402H181.37V26H183.37ZM182.37 22.3402H182.221V24.3402H182.37V22.3402ZM181.336 22.8749C181.053 23.4131 180.698 23.8566 180.271 24.2165L181.561 25.7451C182.195 25.2101 182.71 24.56 183.106 23.8055L181.336 22.8749ZM180.265 24.2216C179.855 24.5736 179.359 24.8468 178.765 25.0335L179.364 26.9417C180.194 26.6809 180.934 26.2829 181.567 25.7401L180.265 24.2216ZM178.761 25.0345C178.172 25.2216 177.482 25.3232 176.678 25.3232V27.3232C177.647 27.3232 178.547 27.201 179.367 26.9406L178.761 25.0345ZM178.555 23.3459C179.348 23.3459 180.094 23.1842 180.772 22.8397L179.867 21.0566C179.501 21.2424 179.071 21.3459 178.555 21.3459V23.3459ZM180.767 22.8426C181.441 22.5054 181.998 22.0298 182.415 21.4159L180.76 20.2929C180.547 20.607 180.258 20.8606 179.872 21.0537L180.767 22.8426ZM182.419 21.4091C182.854 20.757 183.06 20.0131 183.06 19.2138H181.06C181.06 19.6573 180.95 20.0072 180.755 20.2997L182.419 21.4091ZM183.06 19.2138V17.3991H181.06V19.2138H183.06ZM181.596 16.5133C181.493 16.5672 181.344 16.6282 181.138 16.6899L181.713 18.6056C182.004 18.5181 182.278 18.4134 182.524 18.285L181.596 16.5133ZM181.129 16.6927C180.917 16.7585 180.677 16.8225 180.407 16.8842L180.853 18.8339C181.163 18.7629 181.454 18.6861 181.722 18.6028L181.129 16.6927ZM180.407 16.8842C180.139 16.9455 179.862 16.9995 179.575 17.0459L179.895 19.0201C180.222 18.9672 180.541 18.9051 180.853 18.8339L180.407 16.8842ZM179.575 17.0459C179.273 17.0949 178.984 17.1397 178.707 17.1804L178.998 19.1591C179.285 19.1169 179.584 19.0706 179.895 19.0201L179.575 17.0459ZM178.695 17.1822C178.056 17.2841 177.473 17.4471 176.961 17.6871L177.811 19.4976C178.112 19.3564 178.506 19.2377 179.01 19.1573L178.695 17.1822ZM176.954 17.6905C176.429 17.942 175.978 18.2933 175.648 18.7631L177.285 19.913C177.385 19.7697 177.548 19.6238 177.818 19.4941L176.954 17.6905ZM175.645 18.7677C175.306 19.2563 175.156 19.8185 175.156 20.407H177.156C177.156 20.1668 177.213 20.0164 177.288 19.9085L175.645 18.7677ZM175.156 20.407C175.156 21.3059 175.494 22.1056 176.232 22.6523L177.422 21.0452C177.265 20.929 177.156 20.7674 177.156 20.407H175.156ZM176.239 22.6575C176.902 23.1399 177.698 23.3459 178.555 23.3459V21.3459C178.019 21.3459 177.663 21.2204 177.415 21.04L176.239 22.6575ZM211.271 12.7383L211.298 13.7379L212.356 13.7097L212.268 12.6552L211.271 12.7383ZM205.69 12.8874L204.701 13.0317L204.829 13.9108L205.717 13.8871L205.69 12.8874ZM205.218 11.831L204.443 12.4631L204.452 12.4732L205.218 11.831ZM204.211 11.0977L203.802 12.0099L203.813 12.0149L203.824 12.0196L204.211 11.0977ZM200.992 11.2468L200.499 10.3768L200.493 10.3804L200.992 11.2468ZM200.271 12.3903L201.271 12.4125L201.272 12.3928L201.271 12.373L200.271 12.3903ZM200.719 13.3597L200.053 14.1061L200.063 14.1148L200.719 13.3597ZM202.397 14.0185L202.195 14.9979L202.203 14.9995L202.211 15.001L202.397 14.0185ZM206.076 14.7145L206.264 13.7323L206.262 13.7319L206.076 14.7145ZM210.326 16.5291L209.653 17.2685L209.656 17.2714L210.326 16.5291ZM211.743 19.8849L212.743 19.8913L212.743 19.879L211.743 19.8849ZM210.575 23.3029L209.792 22.6807L209.789 22.6848L210.575 23.3029ZM207.443 25.565L207.814 26.4935L207.819 26.4915L207.443 25.565ZM196.443 24.6825L195.859 25.4942L195.864 25.4977L196.443 24.6825ZM193.759 20.1584L193.734 19.1587L192.637 19.186L192.766 20.276L193.759 20.1584ZM199.762 20.0092L200.744 19.8221L200.585 18.9885L199.737 19.0095L199.762 20.0092ZM200.793 21.6001L201.342 20.7643L201.342 20.7643L200.793 21.6001ZM204.82 21.712L204.31 20.8519L204.31 20.8519L204.82 21.712ZM205.566 20.5561L206.566 20.5733L206.566 20.5551L206.566 20.5369L205.566 20.5561ZM204.994 19.5245L204.415 20.3395L204.421 20.3438L204.427 20.348L204.994 19.5245ZM203.242 18.9031L203.055 19.8854L203.058 19.8859L203.242 18.9031ZM199.911 18.2692L200.098 17.2868L200.09 17.2853L199.911 18.2692ZM195.635 16.3427L194.925 17.0467L194.928 17.0498L195.635 16.3427ZM194.243 12.7383L195.243 12.744L195.243 12.7318L194.243 12.7383ZM195.263 9.46946L196.058 10.0753L196.061 10.0718L195.263 9.46946ZM198.196 7.38139L197.841 6.44632L197.841 6.44632L198.196 7.38139ZM208.798 8.28871L208.209 9.09725L208.212 9.09939L208.798 8.28871ZM211.244 11.7386L205.664 11.8878L205.717 13.8871L211.298 13.7379L211.244 11.7386ZM206.68 12.7431C206.595 12.1629 206.361 11.6382 205.985 11.1887L204.452 12.4732C204.589 12.6369 204.67 12.8165 204.701 13.0317L206.68 12.7431ZM205.993 11.1988C205.622 10.7441 205.148 10.4063 204.599 10.1757L203.824 12.0196C204.104 12.1371 204.301 12.2881 204.443 12.4631L205.993 11.1988ZM204.621 10.1854C204.062 9.93443 203.445 9.82422 202.795 9.82422V11.8242C203.221 11.8242 203.549 11.8963 203.802 12.0099L204.621 10.1854ZM202.795 9.82422C201.957 9.82422 201.178 9.99217 200.499 10.3768L201.485 12.1168C201.801 11.938 202.223 11.8242 202.795 11.8242V9.82422ZM200.493 10.3804C199.755 10.8059 199.256 11.4933 199.272 12.4075L201.271 12.373C201.27 12.3137 201.282 12.2921 201.291 12.2773C201.306 12.2547 201.353 12.193 201.492 12.1132L200.493 10.3804ZM199.272 12.3681C199.256 13.0656 199.553 13.66 200.053 14.106L201.385 12.6134C201.271 12.5126 201.27 12.4607 201.271 12.4125L199.272 12.3681ZM200.063 14.1148C200.582 14.565 201.357 14.825 202.195 14.9979L202.599 13.0391C201.83 12.8805 201.486 12.7014 201.375 12.6047L200.063 14.1148ZM202.211 15.001L205.89 15.6971L206.262 13.7319L202.583 13.0359L202.211 15.001ZM205.888 15.6967C207.703 16.044 208.917 16.5977 209.653 17.2685L211 15.7898C209.88 14.7702 208.26 14.1141 206.264 13.7323L205.888 15.6967ZM209.656 17.2714C210.361 17.9077 210.737 18.7473 210.743 19.8909L212.743 19.879C212.734 18.2385 212.164 16.8409 210.997 15.7868L209.656 17.2714ZM210.743 19.8786C210.736 20.9777 210.415 21.8969 209.792 22.6807L211.358 23.9252C212.276 22.77 212.734 21.4105 212.743 19.8913L210.743 19.8786ZM209.789 22.6848C209.15 23.4971 208.257 24.1548 207.067 24.6385L207.819 26.4915C209.28 25.898 210.475 25.0477 211.361 23.921L209.789 22.6848ZM207.072 24.6365C205.885 25.1113 204.498 25.3604 202.894 25.3604V27.3604C204.704 27.3604 206.35 27.0793 207.814 26.4935L207.072 24.6365ZM202.894 25.3604C200.293 25.3604 198.371 24.8254 197.023 23.8673L195.864 25.4977C197.664 26.7769 200.043 27.3604 202.894 27.3604V25.3604ZM197.027 23.8708C195.685 22.9051 194.942 21.647 194.752 20.0408L192.766 20.276C193.023 22.4481 194.069 24.2062 195.859 25.4942L197.027 23.8708ZM193.783 21.1581L199.787 21.0089L199.737 19.0095L193.734 19.1587L193.783 21.1581ZM198.78 20.1963C198.959 21.1386 199.447 21.9121 200.245 22.436L201.342 20.7643C201.03 20.559 200.83 20.2719 200.744 19.8221L198.78 20.1963ZM200.245 22.436C201.005 22.9353 201.919 23.147 202.919 23.147V21.147C202.195 21.147 201.692 20.9941 201.342 20.7643L200.245 22.436ZM202.919 23.147C203.813 23.147 204.64 22.9815 205.331 22.5721L204.31 20.8519C204.023 21.0225 203.582 21.147 202.919 21.147V23.147ZM205.331 22.5721C206.054 22.1429 206.551 21.469 206.566 20.5733L204.566 20.5389C204.565 20.6044 204.565 20.7011 204.31 20.8519L205.331 22.5721ZM206.566 20.5369C206.551 19.7651 206.184 19.1297 205.562 18.701L204.427 20.348C204.551 20.433 204.565 20.4853 204.566 20.5753L206.566 20.5369ZM205.574 18.7095C205.025 18.3189 204.271 18.0786 203.426 17.9202L203.058 19.8859C203.804 20.0258 204.218 20.1998 204.415 20.3395L205.574 18.7095ZM203.429 17.9207L200.098 17.2868L199.724 19.2515L203.055 19.8854L203.429 17.9207ZM200.09 17.2853C198.287 16.9575 197.082 16.3751 196.343 15.6356L194.928 17.0498C196.061 18.1829 197.707 18.8849 199.732 19.253L200.09 17.2853ZM196.346 15.6387C195.615 14.9019 195.236 13.9648 195.243 12.744L193.243 12.7326C193.234 14.4284 193.783 15.8943 194.925 17.0467L196.346 15.6387ZM195.243 12.7318C195.236 11.648 195.521 10.7809 196.058 10.0753L194.467 8.86364C193.629 9.96438 193.234 11.2765 193.243 12.7448L195.243 12.7318ZM196.061 10.0718C196.615 9.33708 197.425 8.74288 198.55 8.31646L197.841 6.44632C196.431 6.98108 195.285 7.77892 194.464 8.86714L196.061 10.0718ZM198.55 8.31646C199.679 7.88868 201.049 7.66051 202.683 7.66051V5.66051C200.869 5.66051 199.248 5.91293 197.841 6.44632L198.55 8.31646ZM202.683 7.66051C205.139 7.66051 206.945 8.17728 208.209 9.09725L209.386 7.48017C207.667 6.2292 205.397 5.66051 202.683 5.66051V7.66051ZM208.212 9.09939C209.459 9.99977 210.141 11.2129 210.275 12.8213L212.268 12.6552C212.087 10.4853 211.119 8.732 209.383 7.47803L208.212 9.09939ZM219.673 25.7141L219.269 26.6287L219.279 26.6329L219.673 25.7141ZM217.449 23.8498L216.608 24.391L216.614 24.4006L217.449 23.8498ZM217.2 18.0206L216.31 17.5653L216.31 17.5653L217.2 18.0206ZM218.741 16.2433L219.313 17.0639L219.313 17.0639L218.741 16.2433ZM221.003 15.2116L221.266 16.1767L221.274 16.1742L221.003 15.2116ZM223.738 14.7269L223.823 15.7233L223.829 15.7227L223.738 14.7269ZM226.36 14.4162L226.521 15.4033L226.533 15.4012L226.36 14.4162ZM227.802 13.9315L228.372 14.7528L228.377 14.7497L227.802 13.9315ZM227.603 11.483L228.224 10.6992L228.224 10.6992L227.603 11.483ZM223.887 11.483L223.307 10.6683L223.307 10.6683L223.887 11.483ZM222.955 12.9247L222.919 13.9241L223.755 13.9537L223.932 13.136L222.955 12.9247ZM217.349 12.7259L216.359 12.5844L216.202 13.6858L217.314 13.7252L217.349 12.7259ZM218.629 9.61861L217.832 9.01516L217.831 9.01629L218.629 9.61861ZM221.488 7.45597L221.884 8.37414L221.887 8.37284L221.488 7.45597ZM229.244 7.09552L228.972 8.05795L228.979 8.05993L229.244 7.09552ZM231.928 8.33842L231.346 9.15098L231.351 9.15514L231.928 8.33842ZM233.693 10.3271L232.808 10.7928L232.812 10.8001L233.693 10.3271ZM234.327 26V27H235.327V26H234.327ZM228.61 26H227.61V27H228.61V26ZM228.61 23.3402H229.61V22.3402H228.61V23.3402ZM228.461 23.3402V22.3402H227.857L227.576 22.8749L228.461 23.3402ZM227.156 24.9808L226.511 24.2165L226.505 24.2216L227.156 24.9808ZM225.304 25.9876L225.004 25.0335L225.001 25.0345L225.304 25.9876ZM226.559 21.9482L226.112 21.0537L226.106 21.0566L226.559 21.9482ZM227.827 20.8544L228.654 21.4159L228.659 21.4091L227.827 20.8544ZM228.299 17.3991H229.299V15.7465L227.835 16.5133L228.299 17.3991ZM227.665 17.6477L227.378 16.6899L227.369 16.6927L227.665 17.6477ZM225.975 18.033L226.135 19.0201L226.135 19.0201L225.975 18.033ZM225.092 18.1697L224.947 17.1803L224.935 17.1822L225.092 18.1697ZM223.626 18.5923L223.201 17.6871L223.194 17.6905L223.626 18.5923ZM222.706 19.3381L221.888 18.7631L221.885 18.7677L222.706 19.3381ZM223.067 21.8487L222.471 22.6523L222.478 22.6575L223.067 21.8487ZM222.917 25.3232C221.81 25.3232 220.867 25.1388 220.068 24.7954L219.279 26.6329C220.369 27.1014 221.588 27.3232 222.917 27.3232V25.3232ZM220.078 24.7997C219.311 24.4603 218.721 23.9624 218.283 23.2989L216.614 24.4006C217.27 25.3943 218.163 26.1394 219.269 26.6286L220.078 24.7997ZM218.29 23.3086C217.879 22.671 217.641 21.8235 217.641 20.7053H215.641C215.641 22.106 215.941 23.3548 216.608 24.391L218.29 23.3086ZM217.641 20.7053C217.641 19.7578 217.808 19.0287 218.09 18.4759L216.31 17.5653C215.847 18.4708 215.641 19.5315 215.641 20.7053H217.641ZM218.09 18.4759C218.391 17.8888 218.796 17.4233 219.313 17.0639L218.17 15.4226C217.377 15.9746 216.755 16.6941 216.31 17.5653L218.09 18.4759ZM219.313 17.0639C219.864 16.6804 220.511 16.3818 221.266 16.1766L220.741 14.2467C219.789 14.5055 218.928 14.8947 218.17 15.4226L219.313 17.0639ZM221.274 16.1742C222.062 15.9526 222.91 15.8013 223.823 15.7233L223.653 13.7305C222.626 13.8183 221.652 13.9901 220.732 14.2491L221.274 16.1742ZM223.829 15.7227C224.925 15.6223 225.825 15.5163 226.521 15.4032L226.2 13.4291C225.57 13.5316 224.721 13.6326 223.647 13.7311L223.829 15.7227ZM226.533 15.4012C227.237 15.278 227.892 15.0863 228.372 14.7528L227.232 13.1101C227.115 13.1909 226.809 13.3224 226.188 13.4312L226.533 15.4012ZM228.377 14.7497C228.962 14.3384 229.262 13.7241 229.262 13.0241H227.262C227.262 13.0559 227.259 13.0748 227.257 13.0836C227.255 13.092 227.254 13.0934 227.255 13.091C227.256 13.0884 227.257 13.0876 227.255 13.0896C227.253 13.0919 227.245 13.1003 227.227 13.1133L228.377 14.7497ZM229.262 13.0241V12.962H227.262V13.0241H229.262ZM229.262 12.962C229.262 12.0665 228.938 11.2648 228.224 10.6992L226.982 12.2667C227.147 12.3971 227.262 12.5815 227.262 12.962H229.262ZM228.224 10.6992C227.558 10.1709 226.722 9.96094 225.826 9.96094V11.9609C226.421 11.9609 226.77 12.099 226.982 12.2667L228.224 10.6992ZM225.826 9.96094C224.884 9.96094 224.014 10.1649 223.307 10.6683L224.467 12.2976C224.737 12.105 225.16 11.9609 225.826 11.9609V9.96094ZM223.307 10.6683C222.605 11.1679 222.16 11.8688 221.977 12.7134L223.932 13.136C224.015 12.7544 224.191 12.494 224.467 12.2976L223.307 10.6683ZM222.99 11.9253L217.385 11.7265L217.314 13.7252L222.919 13.9241L222.99 11.9253ZM218.339 12.8673C218.482 11.87 218.845 10.9938 219.428 10.2209L217.831 9.01629C217.039 10.0664 216.548 11.2616 216.359 12.5844L218.339 12.8673ZM219.427 10.2221C220.004 9.45874 220.81 8.83756 221.884 8.37413L221.092 6.5378C219.746 7.11841 218.646 7.93899 217.832 9.01516L219.427 10.2221ZM221.887 8.37284C222.949 7.9106 224.268 7.66051 225.876 7.66051V5.66051C224.069 5.66051 222.463 5.94073 221.089 6.53909L221.887 8.37284ZM225.876 7.66051C227.014 7.66051 228.044 7.79608 228.972 8.05792L229.515 6.13313C228.388 5.81495 227.173 5.66051 225.876 5.66051V7.66051ZM228.979 8.05993C229.908 8.31451 230.692 8.68188 231.346 9.15096L232.511 7.52588C231.641 6.90121 230.635 6.43999 229.508 6.13112L228.979 8.05993ZM231.351 9.15514C231.991 9.6073 232.471 10.1522 232.808 10.7928L234.578 9.86131C234.087 8.92758 233.39 8.14673 232.505 7.5217L231.351 9.15514ZM232.812 10.8001C233.147 11.4236 233.327 12.1563 233.327 13.0241H235.327C235.327 11.8702 235.085 10.8049 234.574 9.85407L232.812 10.8001ZM233.327 13.0241V26H235.327V13.0241H233.327ZM234.327 25H228.61V27H234.327V25ZM229.61 26V23.3402H227.61V26H229.61ZM228.61 22.3402H228.461V24.3402H228.61V22.3402ZM227.576 22.8749C227.293 23.4131 226.937 23.8566 226.511 24.2165L227.801 25.7451C228.435 25.2101 228.949 24.56 229.346 23.8055L227.576 22.8749ZM226.505 24.2216C226.094 24.5736 225.599 24.8468 225.004 25.0335L225.603 26.9417C226.434 26.6809 227.173 26.2829 227.806 25.7401L226.505 24.2216ZM225.001 25.0345C224.412 25.2216 223.721 25.3232 222.917 25.3232V27.3232C223.887 27.3232 224.787 27.201 225.607 26.9406L225.001 25.0345ZM224.794 23.3459C225.587 23.3459 226.334 23.1842 227.012 22.8397L226.106 21.0566C225.74 21.2424 225.31 21.3459 224.794 21.3459V23.3459ZM227.006 22.8426C227.681 22.5054 228.238 22.0298 228.654 21.4159L226.999 20.2929C226.786 20.607 226.498 20.8606 226.112 21.0537L227.006 22.8426ZM228.659 21.4091C229.094 20.757 229.299 20.0131 229.299 19.2138H227.299C227.299 19.6573 227.19 20.0072 226.995 20.2997L228.659 21.4091ZM229.299 19.2138V17.3991H227.299V19.2138H229.299ZM227.835 16.5133C227.732 16.5672 227.584 16.6282 227.378 16.6899L227.953 18.6056C228.244 18.5181 228.518 18.4134 228.763 18.285L227.835 16.5133ZM227.369 16.6927C227.157 16.7585 226.917 16.8225 226.647 16.8842L227.093 18.8339C227.403 18.7629 227.693 18.6861 227.962 18.6028L227.369 16.6927ZM226.647 16.8842C226.379 16.9455 226.101 16.9995 225.815 17.0459L226.135 19.0201C226.462 18.9672 226.781 18.9051 227.093 18.8339L226.647 16.8842ZM225.815 17.0459C225.513 17.0949 225.223 17.1397 224.947 17.1804L225.238 19.1591C225.525 19.1169 225.824 19.0706 226.135 19.0201L225.815 17.0459ZM224.935 17.1822C224.296 17.2841 223.712 17.4471 223.201 17.6871L224.051 19.4976C224.351 19.3564 224.745 19.2377 225.25 19.1573L224.935 17.1822ZM223.194 17.6905C222.669 17.942 222.218 18.2933 221.888 18.7631L223.524 19.913C223.625 19.7697 223.787 19.6238 224.058 19.4941L223.194 17.6905ZM221.885 18.7677C221.545 19.2563 221.395 19.8185 221.395 20.407H223.395C223.395 20.1668 223.453 20.0164 223.527 19.9085L221.885 18.7677ZM221.395 20.407C221.395 21.3059 221.733 22.1056 222.471 22.6523L223.662 21.0452C223.505 20.929 223.395 20.7674 223.395 20.407H221.395ZM222.478 22.6575C223.142 23.1399 223.937 23.3459 224.794 23.3459V21.3459C224.259 21.3459 223.903 21.2204 223.655 21.04L222.478 22.6575ZM240.843 26H239.843V27H240.843V26ZM240.843 6.90909V5.90909H239.843V6.90909H240.843ZM246.623 6.90909H247.623V5.90909H246.623V6.90909ZM246.623 10.4141H245.623V11.4141H246.623V10.4141ZM246.834 10.4141V11.4141H247.549L247.78 10.7384L246.834 10.4141ZM248.848 7.66726L249.427 8.48244L249.427 8.48244L248.848 7.66726ZM255.634 7.67969L255.05 8.49149L255.05 8.49149L255.634 7.67969ZM257.436 10.4141L256.46 10.6332L256.636 11.4141H257.436V10.4141ZM257.635 10.4141V11.4141H258.369L258.589 10.7135L257.635 10.4141ZM259.723 7.69212L260.272 8.52827L260.276 8.52519L259.723 7.69212ZM267.79 8.40057L267.072 9.09736L267.075 9.09992L267.79 8.40057ZM269.48 26V27H270.48V26H269.48ZM263.402 26H262.402V27H263.402V26ZM262.669 12.3654L261.95 13.0607L261.956 13.0666L262.669 12.3654ZM258.791 12.4276L258.04 11.7674L258.039 11.7682L258.791 12.4276ZM258.082 26V27H259.082V26H258.082ZM252.241 26H251.241V27H252.241V26ZM251.52 12.3778L252.25 11.6947L252.25 11.6947L251.52 12.3778ZM248.214 11.9925L248.736 12.8454L248.742 12.8416L248.749 12.8376L248.214 11.9925ZM247.257 13.0614L246.362 12.6142L246.359 12.6207L246.356 12.6271L247.257 13.0614ZM246.921 26V27H247.921V26H246.921ZM241.843 26V6.90909H239.843V26H241.843ZM240.843 7.90909H246.623V5.90909H240.843V7.90909ZM245.623 6.90909V10.4141H247.623V6.90909H245.623ZM246.623 11.4141H246.834V9.41406H246.623V11.4141ZM247.78 10.7384C248.114 9.76406 248.663 9.0251 249.427 8.48244L248.269 6.85208C247.143 7.65175 246.35 8.74399 245.888 10.0897L247.78 10.7384ZM249.427 8.48244C250.181 7.94678 251.099 7.66051 252.228 7.66051V5.66051C250.74 5.66051 249.404 6.0454 248.269 6.85208L249.427 8.48244ZM252.228 7.66051C253.375 7.66051 254.299 7.95102 255.05 8.49149L256.218 6.86788C255.08 6.04946 253.733 5.66051 252.228 5.66051V7.66051ZM255.05 8.49149C255.794 9.02687 256.257 9.7267 256.46 10.6332L258.412 10.1949C258.102 8.81449 257.363 7.6914 256.218 6.86788L255.05 8.49149ZM257.436 11.4141H257.635V9.41406H257.436V11.4141ZM258.589 10.7135C258.873 9.80834 259.42 9.08667 260.272 8.52826L259.175 6.85597C257.954 7.65646 257.109 8.74943 256.681 10.1146L258.589 10.7135ZM260.276 8.52519C261.127 7.96035 262.151 7.66051 263.39 7.66051V5.66051C261.811 5.66051 260.391 6.04841 259.17 6.85904L260.276 8.52519ZM263.39 7.66051C264.96 7.66051 266.157 8.15472 267.072 9.09735L268.507 7.70378C267.169 6.32634 265.432 5.66051 263.39 5.66051V7.66051ZM267.075 9.09992C267.976 10.0209 268.48 11.3277 268.48 13.1484H270.48C270.48 10.9422 269.857 9.08378 268.504 7.70122L267.075 9.09992ZM268.48 13.1484V26H270.48V13.1484H268.48ZM269.48 25H263.402V27H269.48V25ZM264.402 26V14.5405H262.402V26H264.402ZM264.402 14.5405C264.402 13.4235 264.114 12.4084 263.382 11.6643L261.956 13.0666C262.202 13.3167 262.402 13.7517 262.402 14.5405H264.402ZM263.388 11.6702C262.689 10.948 261.785 10.6072 260.767 10.6072V12.6072C261.307 12.6072 261.671 12.7719 261.95 13.0606L263.388 11.6702ZM260.767 10.6072C259.69 10.6072 258.74 10.9711 258.04 11.7674L259.542 13.0877C259.803 12.7902 260.17 12.6072 260.767 12.6072V10.6072ZM258.039 11.7682C257.367 12.5346 257.082 13.5166 257.082 14.6026H259.082C259.082 13.8657 259.27 13.3977 259.543 13.0869L258.039 11.7682ZM257.082 14.6026V26H259.082V14.6026H257.082ZM258.082 25H252.241V27H258.082V25ZM253.241 26V14.4783H251.241V26H253.241ZM253.241 14.4783C253.241 13.4069 252.946 12.4385 252.25 11.6947L250.79 13.061C251.055 13.3447 251.241 13.7766 251.241 14.4783H253.241ZM252.25 11.6947C251.557 10.9537 250.646 10.6072 249.618 10.6072V12.6072C250.165 12.6072 250.522 12.7745 250.79 13.061L252.25 11.6947ZM249.618 10.6072C248.919 10.6072 248.262 10.7791 247.679 11.1475L248.749 12.8376C248.978 12.6923 249.257 12.6072 249.618 12.6072V10.6072ZM247.692 11.1397C247.112 11.4947 246.67 11.9984 246.362 12.6142L248.151 13.5086C248.307 13.1964 248.504 12.9875 248.736 12.8454L247.692 11.1397ZM246.356 12.6271C246.054 13.2534 245.921 13.9548 245.921 14.7021H247.921C247.921 14.1899 248.012 13.7975 248.158 13.4957L246.356 12.6271ZM245.921 14.7021V26H247.921V14.7021H245.921ZM246.921 25H240.843V27H246.921V25Z" fill="black" mask="url(#path-1-outside-1_1_7)"/>
</g>
<defs>
<filter id="filter0_d_1_7" x="0.596588" y="0.545456" width="272.883" height="41.815" filterUnits="userSpaceOnUse" color-interpolation-filters="sRGB">
<feFlood flood-opacity="0" result="BackgroundImageFix"/>
<feColorMatrix in="SourceAlpha" type="matrix" values="0 0 0 0 0 0 0 0 0 0 0 0 0 0 0 0 0 0 127 0" result="hardAlpha"/>
<feOffset dy="12"/>
<feGaussianBlur stdDeviation="2"/>
<feColorMatrix type="matrix" values="0 0 0 0 0 0 0 0 0 0 0 0 0 0 0 0 0 0 0.25 0"/>
<feBlend mode="normal" in2="BackgroundImageFix" result="effect1_dropShadow_1_7"/>
<feBlend mode="normal" in="SourceGraphic" in2="effect1_dropShadow_1_7" result="shape"/>
</filter>
</defs>
</svg>
